HIERARCHY
ROOT Elbow
{
	OFFSET	0.00	0.00	0.00
	CHANNELS 6 Xposition Yposition Zposition Zrotation Xrotation Yrotation
	JOINT L_Wrist
	{
		OFFSET	 0.208349	 0.000000	 0.000000
		CHANNELS 3 Zrotation Xrotation Yrotation
		JOINT L_index_Proximal
		{
			OFFSET	 0.093499	 0.010637	-0.002083
			CHANNELS 3 Zrotation Xrotation Yrotation
			JOINT L_index_b
			{
				OFFSET	 0.033152	 0.000000	 0.000000
				CHANNELS 3 Zrotation Xrotation Yrotation
				JOINT L_index_c
				{
					OFFSET	 0.018652	 0.000000	 0.000000
					CHANNELS 3 Zrotation Xrotation Yrotation
					End Site
					{
						OFFSET	 0.018652	 0.000000	 0.000000
					}
				}
			}
		}
		JOINT L_middle_Proximal
		{
			OFFSET	 0.090632	-0.006115	-0.003750
			CHANNELS 3 Zrotation Xrotation Yrotation
			JOINT L_middle_b
			{
				OFFSET	 0.037194	 0.000000	 0.000000
				CHANNELS 3 Zrotation Xrotation Yrotation
				JOINT L_middle_c
				{
					OFFSET	 0.021943	 0.000000	 0.000000
					CHANNELS 3 Zrotation Xrotation Yrotation
					End Site
					{
						OFFSET	 0.021943	 0.000000	 0.000000
					}
				}
			}
		}
		JOINT L_pinky_Proximal
		{
			OFFSET	 0.074015	-0.035449	-0.000417
			CHANNELS 3 Zrotation Xrotation Yrotation
			JOINT L_pinky_b
			{
				OFFSET	 0.027285	 0.000000	 0.000000
				CHANNELS 3 Zrotation Xrotation Yrotation
				JOINT L_pinky_c
				{
					OFFSET	 0.015093	 0.000000	 0.000000
					CHANNELS 3 Zrotation Xrotation Yrotation
					End Site
					{
						OFFSET	 0.015093	 0.000000	 0.000000
					}
				}
			}
		}
		JOINT L_ring_Proximal
		{
			OFFSET	 0.082801	-0.021859	-0.003750
			CHANNELS 3 Zrotation Xrotation Yrotation
			JOINT L_ring_b
			{
				OFFSET	 0.034477	 0.000000	 0.000000
				CHANNELS 3 Zrotation Xrotation Yrotation
				JOINT L_ring_c
				{
					OFFSET	 0.021377	 0.000000	 0.000000
					CHANNELS 3 Zrotation Xrotation Yrotation
					End Site
					{
						OFFSET	 0.021377	 0.000000	 0.000000
					}
				}
			}
		}
		JOINT L_thumb_Proximal
		{
			OFFSET	 0.030306	 0.018528	 0.004584
			CHANNELS 3 Zrotation Xrotation Yrotation
			JOINT L_thumb_a
			{
				OFFSET	 0.038520	 0.000000	 0.000000
				CHANNELS 3 Zrotation Xrotation Yrotation
				JOINT L_thumb_b
				{
					OFFSET	 0.026310	 0.000000	 0.000000
					CHANNELS 3 Zrotation Xrotation Yrotation
					End Site
					{
						OFFSET	 0.026310	 0.000000	 0.000000
					}
				}
			}
		}
	}
}
MOTION
Frames:    19
Frame Time: 0.01666667
 2.390480	-0.619328	 1.768094	 43.317090	 29.943900	-147.063200	 2.500335	 4.060645	 23.733150	-0.319785	 0.031616	 6.263316	-0.576719	 0.037362	-6.998374	-0.919654	 0.048635	-5.942634	-10.545260	-8.490021	 5.282224	 0.359514	-0.034032	-9.038669	 0.468732	-0.030437	-7.690336	-32.385590	-19.699620	 6.704463	 4.567043	-0.534223	-13.057570	 5.671224	-0.545372	-10.770150	-20.896530	-11.333190	 4.081518	 0.161388	-0.035658	-11.828440	-0.188201	 0.013065	-9.103412	 61.338090	 58.152340	-25.515390	-1.065616	 0.049379	-4.407959	 2.642889	-0.254823	-11.329490
 2.387586	-0.617516	 1.766168	 40.911420	 33.790540	-144.769700	 3.394631	 3.980963	 23.240030	 0.916595	 0.014183	 6.275812	 0.989942	-0.075663	-8.762320	-0.497387	 0.031755	-6.809589	-10.025240	-8.487647	 3.972035	 0.864028	-0.075660	-9.867050	-0.256591	 0.021004	-8.438050	-31.911970	-19.445450	-0.076321	 5.289201	-0.790618	-16.571280	 5.436430	-0.642797	-14.011830	-21.499980	-11.173720	-1.765498	-0.020522	 0.004383	-15.187870	-0.716270	 0.076214	-10.450780	 60.827280	 58.114800	-26.011890	-1.505944	 0.050780	-3.641007	 2.469059	-0.233299	-10.859080
 2.383899	-0.615804	 1.765651	 35.501610	 40.832800	-140.255400	 6.171687	 3.928031	 22.913510	 0.831077	-0.015952	 3.230246	 0.439044	-0.033491	-9.739912	-1.397926	 0.102630	-8.416599	-6.857250	-8.697778	 0.283665	 2.490287	-0.269595	-12.336130	-0.774331	 0.050808	-8.093110	-31.557920	-19.017930	-11.941790	 5.935050	-1.038633	-19.915570	 4.278419	-0.669370	-17.966610	-19.753130	-11.277620	-6.125477	 0.892042	-0.138130	-17.205600	 0.406053	-0.046232	-11.131260	 60.065570	 57.665960	-28.414010	-1.659080	 0.064903	-5.266028	 2.107059	-0.252384	-12.982760
 2.382582	-0.614773	 1.766612	 32.094100	 44.368310	-137.705600	 7.647524	 3.905684	 22.776390	 0.515209	-0.026505	 1.256206	 0.085518	-0.005909	-9.264658	-0.784737	 0.057625	-8.661917	-6.026837	-8.827821	-1.595371	 2.153826	-0.235484	-12.596620	-0.666114	 0.046930	-7.977521	-30.963590	-19.119310	-11.908220	 5.501877	-1.001069	-20.638460	 4.656883	-0.753613	-18.372790	-18.730730	-11.418990	-5.648220	 1.691359	-0.245720	-16.397350	 1.218864	-0.114046	-10.515030	 59.391700	 57.604370	-29.137640	-1.527006	 0.078465	-5.983333	 2.287287	-0.297225	-14.577870
 2.379062	-0.612034	 1.768222	 26.175700	 49.201490	-132.724800	 9.113482	 3.919142	 22.863060	-0.093624	-0.008350	-3.059005	-0.785323	 0.084171	-12.397500	 0.034423	-0.008896	-12.138600	-9.212286	-8.573389	-5.610863	 3.044765	-0.494994	-17.787670	 0.292589	-0.031710	-10.123110	-33.388480	-18.139440	-23.598060	 3.365506	-0.813802	-27.212900	 2.204058	-0.443573	-24.426510	-18.770170	-11.426810	-14.128550	 2.374588	-0.441627	-20.816640	 2.372150	-0.286025	-13.034650	 58.784580	 57.734680	-28.960820	-1.664356	 0.109707	-7.698184	 1.413902	-0.238260	-18.393950
 2.377882	-0.610953	 1.768145	 24.643800	 50.073930	-131.242500	 9.132082	 3.957946	 23.103460	-0.931266	 0.083772	-5.072474	-1.151356	 0.143791	-14.560700	 0.291325	-0.034367	-12.973760	-11.403860	-8.257182	-8.521572	 3.679410	-0.711237	-21.508510	 0.378488	-0.035940	-10.777120	-34.326280	-17.518450	-29.610780	 2.825755	-0.755960	-30.023970	 1.010074	-0.231152	-26.829210	-19.887730	-11.141880	-20.759370	 2.604338	-0.554450	-23.783760	 2.446928	-0.305704	-14.363260	 56.274090	 58.824870	-25.572740	-1.907659	 0.132857	-8.103712	 1.350072	-0.239768	-19.738660
 2.376181	-0.610904	 1.769286	 17.327920	 53.356650	-125.160500	 9.521495	 3.982354	 23.254500	-1.748476	 0.316180	-12.244600	-1.950223	 0.422507	-24.255860	 0.155163	-0.026416	-16.597420	-13.421370	-7.560256	-18.616220	 3.647079	-0.989378	-30.219310	 1.093618	-0.140156	-15.838700	-33.114190	-17.377820	-38.184510	 4.017211	-1.314096	-36.609620	 1.496292	-0.392147	-30.435580	-21.102630	-10.593610	-29.258110	 2.918943	-0.768905	-29.793640	 1.717693	-0.259985	-18.535340	 51.608390	 59.866040	-23.279070	-1.508985	 0.116641	-9.059885	 1.612457	-0.325962	-22.585080
 2.376163	-0.611462	 1.769775	 10.874500	 55.551170	-119.817400	 9.662860	 3.979939	 23.239320	-1.994048	 0.436896	-17.615810	-1.303959	 0.339892	-29.539230	 0.941875	-0.162646	-19.805880	-14.522170	-7.049525	-24.061410	 3.877981	-1.197266	-34.290620	 1.143228	-0.177632	-18.947000	-31.900190	-17.776060	-40.030260	 4.210167	-1.501860	-39.663320	 1.460570	-0.403462	-31.169430	-22.143870	-10.099210	-33.725710	 2.025614	-0.615221	-34.743810	 0.448611	-0.048515	-21.988710	 52.366240	 59.252760	-26.217710	-1.542010	 0.138431	-10.626680	 1.913883	-0.421877	-24.612210
 2.375420	-0.611573	 1.769114	-3.852066	 58.643960	-106.905500	 9.508009	 3.756559	 21.864320	-1.432327	 0.381402	-24.736800	 1.242327	-0.439931	-39.858810	 1.071883	-0.231232	-28.607100	-12.234120	-7.431683	-35.228520	 4.727894	-2.173944	-50.596720	-1.101175	 0.445184	-32.528140	-30.271030	-18.354620	-43.168240	 4.613420	-1.909436	-45.254330	 0.619871	-0.151342	-33.734540	-21.564560	-10.023250	-44.352030	 1.385315	-0.583834	-48.299490	-2.901875	 0.904213	-31.744710	 47.878780	 59.882940	-25.983610	-1.600746	 0.172436	-12.910390	 3.571130	-0.864727	-26.808200
 2.374352	-0.610873	 1.767950	-12.950470	 59.517120	-98.655120	 9.444077	 3.570170	 20.722170	-1.550654	 0.460219	-27.113000	 1.760721	-0.727008	-45.786000	 1.062194	-0.289688	-33.061320	-11.306470	-7.676883	-41.078280	 5.086679	-2.917016	-60.487830	-0.860337	 0.308664	-37.706480	-30.859530	-17.983970	-45.790410	 4.938308	-2.332496	-50.852300	-0.020727	 0.040305	-37.287010	-20.900620	-10.225870	-48.872670	 2.435740	-1.254334	-55.593010	-3.005378	 1.004513	-36.071030	 44.124380	 60.703510	-23.372330	-1.048881	 0.124795	-14.257500	 4.827052	-1.301820	-30.023700
 2.372849	-0.611072	 1.766557	-30.425770	 59.291010	-83.226040	 9.739515	 3.418984	 19.805090	-1.166988	 0.378827	-32.309960	 2.306885	-1.262875	-58.706170	 1.481550	-0.518587	-39.293370	-10.040210	-8.229362	-47.094370	 6.017646	-4.279315	-71.209870	 3.885267	-1.525357	-42.408280	-30.603870	-17.897790	-51.640290	 5.519386	-3.440266	-64.431850	 2.534087	-1.077699	-45.514420	-19.921590	-10.712750	-52.295160	 3.804216	-2.440414	-66.149810	 1.127370	-0.459115	-43.108250	 43.412830	 60.742820	-23.614800	-0.160515	 0.022180	-17.164100	 4.522006	-1.550673	-38.025890
 2.372024	-0.611163	 1.766382	-36.803860	 58.722170	-77.616910	 9.768656	 3.453813	 20.015890	-1.124494	 0.385186	-36.845040	 0.322204	-0.171057	-64.956210	 1.395988	-0.526718	-41.877310	-10.036460	-8.231254	-49.635530	 5.322133	-4.138108	-76.037770	 4.827815	-1.956642	-44.124930	-30.847420	-17.668330	-54.478690	 4.693930	-3.250280	-69.771220	 3.380806	-1.487716	-47.500040	-19.776710	-10.782510	-54.409740	 4.273270	-3.034144	-71.077630	 2.568738	-1.063960	-44.790920	 45.261330	 60.264870	-25.527110	-0.578089	 0.094512	-18.800030	 3.272629	-1.197370	-40.281250
 2.370343	-0.611426	 1.767014	-44.377860	 57.645780	-70.972470	 9.404151	 3.676548	 21.370600	-1.802675	 0.786086	-46.367590	-1.459782	 1.083392	-72.779300	 1.270500	-0.497219	-42.725420	-10.019660	-8.238162	-56.264250	 3.822882	-3.355771	-82.688540	 5.190318	-2.121322	-44.423860	-32.012070	-16.584510	-62.732080	 2.176879	-1.705412	-76.734120	 2.321301	-0.999301	-46.428440	-19.784670	-10.724410	-61.259970	 3.511923	-2.933104	-79.981060	 4.230840	-1.726105	-44.125340	 47.230050	 59.473600	-28.984140	-1.552599	 0.277883	-20.315560	 1.190034	-0.465477	-42.769960
 2.369465	-0.611986	 1.767379	-47.220040	 57.019050	-68.504640	 9.412707	 3.795220	 22.100150	-2.245810	 1.105383	-50.392340	-2.277050	 1.758049	-74.984940	 0.705952	-0.272273	-43.221800	-9.944839	-8.268498	-59.656360	 3.361505	-3.060211	-84.813480	 4.999970	-2.072372	-45.061190	-31.440730	-16.750840	-66.736240	 2.116926	-1.745553	-79.231730	 2.819028	-1.225845	-46.791370	-19.520120	-10.862930	-65.491330	 3.575087	-3.187663	-83.637600	 4.642243	-1.876334	-43.908180	 47.939920	 59.116830	-30.606330	-1.583278	 0.286851	-20.553940	 0.583453	-0.233571	-43.797160
 2.368172	-0.613788	 1.767100	-52.929650	 55.195650	-63.752380	 9.355566	 3.952548	 23.070870	-3.195863	 1.898444	-57.494600	-3.442639	 2.779974	-77.713380	-0.870327	 0.347395	-43.010880	-10.447550	-7.856902	-65.211810	 2.628384	-2.509625	-87.445250	 4.246855	-1.787782	-45.691990	-30.362720	-17.213930	-73.776920	 1.426767	-1.232052	-81.873870	 2.862116	-1.226676	-46.410110	-19.816110	-10.522680	-72.961270	 2.932395	-2.793545	-87.347620	 3.681129	-1.480626	-43.934280	 50.240670	 58.162630	-34.069700	-1.518772	 0.286575	-21.382350	-0.520508	 0.219523	-45.423760
 2.367576	-0.614812	 1.766701	-55.993870	 54.001120	-61.258120	 9.381893	 3.989517	 23.299400	-3.557350	 2.262796	-60.493460	-3.891713	 3.194906	-78.680150	-1.620611	 0.640432	-42.926330	-10.839040	-7.526186	-67.131940	 2.358261	-2.279507	-88.120970	 3.651658	-1.539988	-45.768370	-29.866410	-17.489270	-76.947650	 1.308134	-1.141560	-82.294800	 2.799037	-1.183354	-45.832510	-20.130500	-10.191600	-75.788740	 2.925001	-2.826471	-88.066340	 2.932141	-1.178845	-43.904240	 51.099070	 57.805850	-35.200690	-1.563573	 0.302822	-21.930470	-1.266177	 0.544793	-46.448450
 2.366020	-0.616992	 1.764630	-61.729580	 51.007040	-56.600170	 9.609383	 3.940740	 22.996100	-3.340475	 2.323349	-65.652830	-3.936669	 3.322026	-80.290130	-2.309171	 0.909831	-42.976360	-11.365590	-7.041215	-70.125030	 1.700051	-1.661139	-88.741090	 2.675173	-1.120719	-45.487990	-29.237660	-17.877570	-81.774530	 0.732951	-0.649380	-83.179540	 2.995964	-1.219662	-44.307460	-20.563860	-9.693727	-79.596870	 2.365017	-2.319247	-88.950630	 1.863142	-0.741486	-43.459820	 51.940930	 57.156510	-37.736710	-2.001161	 0.393763	-22.257870	-2.765549	 1.190342	-46.566670
 2.365178	-0.617920	 1.763139	-63.668320	 49.651130	-55.018370	 9.699092	 3.879339	 22.616220	-3.259120	 2.305908	-66.952280	-3.671807	 3.132368	-80.913180	-2.350430	 0.924787	-42.949360	-11.457540	-6.967626	-70.411070	 1.485618	-1.465137	-89.261630	 2.175124	-0.902243	-45.076350	-29.113870	-17.965780	-82.976380	 0.599416	-0.534410	-83.582500	 2.625996	-1.057333	-43.898110	-20.626770	-9.627730	-80.108760	 2.143333	-2.125954	-89.580620	 1.331588	-0.524284	-43.056580	 51.424710	 57.223720	-37.912020	-2.247028	 0.442732	-22.290620	-2.952605	 1.267192	-46.450120
 2.364099	-0.619533	 1.759999	-65.789250	 47.645020	-53.568550	 9.370770	 3.868520	 22.550390	-2.882081	 2.079630	-69.300290	-3.151674	 2.742905	-82.047940	-2.121765	 0.846942	-43.520100	-11.391030	-7.027495	-70.925430	 1.488906	-1.485359	-89.886540	 1.778178	-0.736013	-44.976550	-28.975580	-18.074240	-84.478710	 0.860434	-0.779074	-84.332710	 1.811036	-0.723566	-43.586940	-20.606070	-9.646029	-80.790240	 2.138890	-2.147766	-90.255710	 0.893909	-0.351297	-42.933900	 50.184720	 57.542740	-37.460700	-2.406738	 0.480539	-22.582900	-3.029325	 1.295273	-46.291860
